<svg aria-hidden="true" style="position: absolute; width: 0; height: 0; overflow: hidden;" version="1.1" xmlns="http://www.w3.org/2000/svg" xmlns:xlink="http://www.w3.org/1999/xlink">
<defs>
<symbol id="icon-search" viewBox="0 0 32 32">
<path d="M4.024 4.024c2.595-2.595 6.045-4.024 9.715-4.024s7.12 1.429 9.715 4.024c2.595 2.595 4.024 6.045 4.024 9.715 0 3.355-1.195 6.526-3.383 9.029l7.63 7.63c0.367 0.366 0.367 0.961 0 1.327-0.183 0.183-0.423 0.275-0.663 0.275s-0.481-0.092-0.664-0.275l-7.63-7.63c-2.502 2.188-5.673 3.383-9.029 3.383-3.67 0-7.12-1.429-9.715-4.024s-4.024-6.045-4.024-9.715 1.429-7.12 4.024-9.715zM5.351 22.127c4.625 4.625 12.15 4.625 16.775 0s4.625-12.15 0-16.775c-2.313-2.313-5.35-3.469-8.388-3.469s-6.075 1.157-8.388 3.469c-4.625 4.625-4.625 12.15 0 16.775z"></path>
</symbol>
<symbol id="icon-location" viewBox="0 0 21 32">
<path d="M10.667 0c-5.882 0-10.667 4.99-10.667 11.123 0 7.709 10.677 20.877 10.677 20.877s10.656-13.547 10.656-20.877c0-6.133-4.785-11.123-10.667-11.123zM13.885 14.38c-0.887 0.925-2.053 1.388-3.218 1.388s-2.331-0.463-3.218-1.388c-1.775-1.85-1.775-4.861 0-6.712 0.859-0.896 2.002-1.39 3.218-1.39s2.359 0.494 3.218 1.39c1.775 1.851 1.775 4.861 0 6.712z"></path>
</symbol>
</defs>
</svg>
